<svg xmlns="http://www.w3.org/2000/svg" width="1200" height="800" viewBox="0 0 1200 800" role="img" aria-label="Science fair highlights">
  <defs>
    <linearGradient id="g" x1="0" y1="0" x2="1" y2="1">
      <stop offset="0%" stop-color="#2947a9"/>
      <stop offset="100%" stop-color="#11b5ae"/>
    </linearGradient>
    <linearGradient id="g2" x1="0" y1="1" x2="1" y2="0">
      <stop offset="0%" stop-color="#ffffff" stop-opacity="0.9"/>
      <stop offset="100%" stop-color="#ffffff" stop-opacity="0.4"/>
    </linearGradient>
  </defs>
  <rect width="1200" height="800" rx="40" fill="#f7fbff"/>
  <circle cx="160" cy="120" r="90" fill="#11b5ae" opacity="0.15"/>
  <circle cx="1040" cy="180" r="120" fill="#2947a9" opacity="0.12"/>
  <circle cx="1000" cy="660" r="160" fill="#11b5ae" opacity="0.1"/>
  <rect x="110" y="150" width="980" height="500" rx="36" fill="url(#g)" opacity="0.10"/>
  <rect x="150" y="190" width="900" height="420" rx="30" fill="#ffffff" opacity="0.92"/>
  <rect x="200" y="250" width="260" height="230" rx="24" fill="url(#g)" opacity="0.92"/>
  <rect x="500" y="250" width="320" height="36" rx="18" fill="#dfe7ff"/>
  <rect x="500" y="308" width="420" height="20" rx="10" fill="#e8eef9"/>
  <rect x="500" y="344" width="380" height="20" rx="10" fill="#edf2fb"/>
  <rect x="500" y="380" width="300" height="20" rx="10" fill="#edf2fb"/>
  <rect x="500" y="430" width="180" height="90" rx="22" fill="#f6f9ff" stroke="#e7ecf7"/>
  <rect x="700" y="430" width="180" height="90" rx="22" fill="#f6f9ff" stroke="#e7ecf7"/>
  <rect x="900" y="430" width="100" height="120" rx="22" fill="#f6f9ff" stroke="#e7ecf7"/>
  <circle cx="330" cy="365" r="62" fill="#ffffff" opacity="0.95"/>
  <path d="M278 398c16-42 35-66 54-66s38 24 54 66" fill="none" stroke="#11b5ae" stroke-width="14" stroke-linecap="round"/>
  <circle cx="330" cy="338" r="28" fill="#11b5ae" opacity="0.75"/>
  <rect x="225" y="520" width="775" height="50" rx="24" fill="#f4f7fd"/>
  <text x="600" y="725" text-anchor="middle" font-family="Manrope, Arial, sans-serif" font-size="42" font-weight="800" fill="#183050">Science fair highlights</text>
</svg>